<svg width="113" height="20" viewBox="0 0 113 20" fill="none" xmlns="http://www.w3.org/2000/svg">
<path d="M3.03 12.136V9.536H7.58C8.204 9.536 8.75 9.41467 9.218 9.172C9.70333 8.912 10.0847 8.55667 10.362 8.106C10.6393 7.638 10.778 7.092 10.778 6.468C10.778 5.844 10.6393 5.30667 10.362 4.856C10.0847 4.388 9.70333 4.03267 9.218 3.79C8.75 3.53 8.204 3.4 7.58 3.4H3.03V0.799999H7.736C8.88 0.799999 9.90267 1.034 10.804 1.502C11.7227 1.97 12.442 2.62867 12.962 3.478C13.4993 4.32733 13.768 5.324 13.768 6.468C13.768 7.612 13.4993 8.60867 12.962 9.458C12.442 10.3073 11.7227 10.966 10.804 11.434C9.90267 11.902 8.88 12.136 7.736 12.136H3.03ZM0.976 19V0.799999H3.966V19H0.976ZM16.4643 19V0.799999H18.5443L26.1103 13.254H24.7583L32.3243 0.799999H34.4043V19H31.4143V6.052L32.0903 6.234L26.4743 15.464H24.3943L18.7783 6.234L19.4543 6.052V19H16.4643ZM38.351 19V0.799999H41.341V19H38.351ZM40.405 11.2V8.47H49.661V11.2H40.405ZM40.405 3.53V0.799999H50.103V3.53H40.405ZM53.5005 19.26C52.9458 19.26 52.4865 19.078 52.1225 18.714C51.7758 18.3327 51.6025 17.8733 51.6025 17.336C51.6025 16.7813 51.7758 16.322 52.1225 15.958C52.4865 15.594 52.9458 15.412 53.5005 15.412C54.0551 15.412 54.5058 15.594 54.8525 15.958C55.2165 16.322 55.3985 16.7813 55.3985 17.336C55.3985 17.8733 55.2165 18.3327 54.8525 18.714C54.5058 19.078 54.0551 19.26 53.5005 19.26ZM66.5748 19.26C65.3268 19.26 64.1481 19.0173 63.0388 18.532C61.9295 18.0467 60.9588 17.3793 60.1268 16.53C59.2948 15.6633 58.6361 14.6667 58.1508 13.54C57.6828 12.396 57.4488 11.174 57.4488 9.874C57.4488 8.574 57.6828 7.36067 58.1508 6.234C58.6361 5.10733 59.2948 4.11933 60.1268 3.27C60.9761 2.40333 61.9641 1.736 63.0908 1.268C64.2348 0.782666 65.4655 0.539999 66.7828 0.539999C68.2215 0.539999 69.5561 0.817332 70.7868 1.372C72.0175 1.92667 73.0488 2.71533 73.8808 3.738L71.8528 5.766C71.3155 5.00333 70.5961 4.42267 69.6948 4.024C68.7935 3.608 67.8228 3.4 66.7828 3.4C65.5348 3.4 64.4341 3.67733 63.4808 4.232C62.5448 4.76933 61.8168 5.52333 61.2968 6.494C60.7768 7.46467 60.5168 8.59133 60.5168 9.874C60.5168 11.1567 60.7768 12.292 61.2968 13.28C61.8341 14.2507 62.5535 15.0133 63.4548 15.568C64.3561 16.1227 65.3788 16.4 66.5228 16.4C67.7361 16.4 68.7761 16.1833 69.6428 15.75C70.5268 15.2993 71.2028 14.6407 71.6708 13.774C72.1388 12.89 72.3728 11.8067 72.3728 10.524L74.2448 11.876H66.4708V9.146H75.4668V9.562C75.4668 11.7287 75.0768 13.5313 74.2968 14.97C73.5341 16.4087 72.4855 17.4833 71.1508 18.194C69.8161 18.9047 68.2908 19.26 66.5748 19.26ZM83.1748 19.26C82.1175 19.26 81.1728 19.026 80.3408 18.558C79.5261 18.09 78.8848 17.4487 78.4168 16.634C77.9661 15.802 77.7408 14.8487 77.7408 13.774V6.52H80.6008V13.644C80.6008 14.2507 80.6961 14.7707 80.8868 15.204C81.0948 15.62 81.3895 15.9407 81.7708 16.166C82.1695 16.3913 82.6375 16.504 83.1748 16.504C84.0068 16.504 84.6395 16.2613 85.0728 15.776C85.5235 15.2733 85.7488 14.5627 85.7488 13.644V6.52H88.6088V13.774C88.6088 14.866 88.3748 15.828 87.9068 16.66C87.4561 17.4747 86.8235 18.116 86.0088 18.584C85.1941 19.0347 84.2495 19.26 83.1748 19.26ZM91.4844 19V6.52H94.3444V19H91.4844ZM94.3444 12.058L93.3564 11.564C93.3564 9.98667 93.7031 8.71267 94.3964 7.742C95.1071 6.754 96.1731 6.26 97.5944 6.26C98.2184 6.26 98.7818 6.37267 99.2844 6.598C99.7871 6.82333 100.255 7.18733 100.688 7.69L98.8164 9.614C98.5911 9.37133 98.3398 9.198 98.0624 9.094C97.7851 8.99 97.4644 8.938 97.1004 8.938C96.3031 8.938 95.6444 9.18933 95.1244 9.692C94.6044 10.1947 94.3444 10.9833 94.3444 12.058ZM107.194 19.26C106.137 19.26 105.192 19.026 104.36 18.558C103.546 18.09 102.904 17.4487 102.436 16.634C101.986 15.802 101.76 14.8487 101.76 13.774V6.52H104.62V13.644C104.62 14.2507 104.716 14.7707 104.906 15.204C105.114 15.62 105.409 15.9407 105.79 16.166C106.189 16.3913 106.657 16.504 107.194 16.504C108.026 16.504 108.659 16.2613 109.092 15.776C109.543 15.2733 109.768 14.5627 109.768 13.644V6.52H112.628V13.774C112.628 14.866 112.394 15.828 111.926 16.66C111.476 17.4747 110.843 18.116 110.028 18.584C109.214 19.0347 108.269 19.26 107.194 19.26Z" fill="black"/>
</svg>
