<svg width="23" height="23" viewBox="0 0 23 23" fill="none" xmlns="http://www.w3.org/2000/svg">
<path d="M22.6992 1.60938C23 2.98438 23 4.05859 22.957 5.13281C22.957 9.55859 20.5938 12.2227 17.457 14.1992V18.7109C17.457 19.3984 16.9844 20.2148 16.3398 20.5586L12.0859 22.6641C11.957 22.707 11.7852 22.75 11.6562 22.75C11.0547 22.75 10.625 22.3203 10.625 21.7188V17.25C10.625 15.0156 8.77734 13.125 6.5 13.125H2.03125C1.42969 13.125 1 12.6953 1 12.0938C1 11.9648 1.04297 11.793 1.08594 11.6641L3.23438 7.41016C3.53516 6.76562 4.35156 6.25 5.03906 6.25H9.55078C11.5273 3.15625 14.1914 0.75 18.6172 0.75C19.6914 0.75 20.7656 0.75 22.1406 1.05078C22.3984 1.13672 22.6133 1.35156 22.6992 1.60938ZM17.5 7.96875C18.4453 7.96875 19.2188 7.23828 19.2188 6.25C19.2188 5.30469 18.4453 4.53125 17.5 4.53125C16.5117 4.53125 15.7812 5.30469 15.7812 6.25C15.7812 7.23828 16.5117 7.96875 17.5 7.96875ZM2.50391 15.918C4.22266 14.1562 6.54297 14.0703 8.13281 15.6172C9.67969 17.207 9.59375 19.5273 7.83203 21.2461C6.75781 22.3633 3.96484 22.8789 1 22.75C0.871094 19.7852 1.38672 16.9922 2.50391 15.918ZM6.02734 19.5273C6.58594 18.9258 6.62891 18.1523 6.11328 17.6367C5.59766 17.1211 4.82422 17.1641 4.22266 17.7227C3.87891 18.1094 3.70703 19.0117 3.75 20C4.73828 20.043 5.64062 19.8711 6.02734 19.5273Z" fill="#17044A"/>
</svg>
