<svg width="28" height="20" viewBox="0 0 28 20" fill="none" xmlns="http://www.w3.org/2000/svg">
<path d="M25.6875 7.73047C26.9766 8.33203 27.75 9.10547 27.75 9.75C27.75 10.4375 26.9766 11.2109 25.6875 11.8125C24.2695 12.5 22.3789 12.8438 20.5312 12.8438H8.24219C8.02734 13.1445 7.76953 13.3594 7.51172 13.5312H16.4062C10.0898 14.8633 9.66016 19.375 4.375 19.375V13.875H3.6875V19.375C2.52734 19.375 1.625 18.1719 1.625 16.625V13.875C0.59375 13.875 0.25 13.4453 0.25 12.8438V11.125C0.25 10.5664 0.59375 10.0938 1.625 10.0938V9.40625C0.59375 9.40625 0.25 8.97656 0.25 8.375V6.65625C0.25 6.09766 0.59375 5.625 1.625 5.625V2.875C1.625 1.37109 2.52734 0.125 3.6875 0.125V5.625H4.375V0.125C9.66016 0.125 10.0898 4.67969 16.4062 5.96875H7.51172C7.76953 6.18359 8.02734 6.39844 8.24219 6.65625H20.5312C22.3789 6.65625 24.2695 7.04297 25.6875 7.73047ZM21.2188 11.4688C22.5508 11.4688 22.5508 8.03125 21.2188 8.03125C21.0039 8.03125 20.875 8.20312 20.875 8.375V11.125C20.875 11.3398 21.0039 11.4688 21.2188 11.4688Z" fill="#17044A"/>
</svg>
