<svg width="24" height="25" viewBox="0 0 24 25" fill="none" xmlns="http://www.w3.org/2000/svg">
<path d="M14.4492 12.75L23.6523 21.9531C23.875 22.1758 23.875 22.5469 23.6523 22.8438L22.0195 24.4766C21.7227 24.6992 21.3516 24.6992 21.1289 24.4766L19.5703 22.918L12 15.2734L2.79688 24.4766C2.57422 24.6992 2.20312 24.6992 1.90625 24.4766L0.273438 22.8438C0.0507812 22.5469 0.0507812 22.1758 0.273438 21.9531L9.47656 12.75L0.273438 3.62109C0.0507812 3.39844 0.0507812 3.02734 0.273438 2.73047L1.90625 1.09766C2.20312 0.875 2.57422 0.875 2.79688 1.09766L12 10.3008L21.1289 1.09766C21.3516 0.875 21.7227 0.875 22.0195 1.09766L23.6523 2.73047C23.875 3.02734 23.875 3.39844 23.6523 3.62109L22.0938 5.17969L14.4492 12.75Z" fill="black"/>
</svg>
